<?xml version="1.0" encoding="utf-8"?>
<!-- Generator: Adobe Illustrator 22.1.0, SVG Export Plug-In . SVG Version: 6.00 Build 0)  -->
<svg version="1.1" id="Icons" xmlns="http://www.w3.org/2000/svg" xmlns:xlink="http://www.w3.org/1999/xlink" x="0px" y="0px"
	 viewBox="0 0 353.3 353.3" style="enable-background:new 0 0 353.3 353.3;" xml:space="preserve">
<style type="text/css">
	.st0{opacity:0.8;fill:url(#SVGID_1_);stroke:#FFFFFF;stroke-width:9.861;stroke-miterlimit:10;}
	.st1{opacity:0.8;}
	.st2{fill:#FFFFFF;}
	.st3{fill:#FDBC4B;}
	.st4{fill:url(#SVGID_2_);}
	.st5{fill:#FDD8CC;}
	.st6{opacity:0.8;fill:url(#SVGID_3_);}
	.st7{opacity:0.8;fill:url(#SVGID_4_);}
	.st8{opacity:0.8;fill:url(#SVGID_5_);}
	.st9{opacity:0.7;fill:url(#SVGID_6_);}
	.st10{opacity:0.8;fill:url(#SVGID_7_);}
	.st11{opacity:0.8;fill:url(#SVGID_8_);}
	.st12{opacity:0.8;fill:url(#SVGID_9_);}
	.st13{opacity:0.8;fill:url(#SVGID_10_);}
	.st14{opacity:0.7;fill:url(#SVGID_11_);}
	.st15{opacity:0.8;fill:url(#SVGID_12_);}
	.st16{opacity:0.8;fill:url(#SVGID_13_);}
	.st17{opacity:0.8;fill:url(#SVGID_14_);}
	.st18{opacity:0.8;fill:url(#SVGID_15_);}
	.st19{fill:url(#SVGID_16_);}
	.st20{fill:url(#SVGID_17_);}
	.st21{fill:#EA9E23;}
	.st22{fill:#F89E78;}
	.st23{opacity:0.5;fill:#FFFFFF;}
	.st24{opacity:0.4;fill:#FFFFFF;}
	.st25{opacity:0.8;fill:url(#SVGID_18_);}
	.st26{opacity:0.8;fill:url(#SVGID_19_);}
	.st27{fill:#A9A8A8;}
	.st28{fill:none;stroke:#A9A8A8;stroke-width:1.5778;stroke-miterlimit:10;}
</style>
<g>
	<radialGradient id="SVGID_1_" cx="176.6654" cy="176.6653" r="273.8338" gradientUnits="userSpaceOnUse">
		<stop  offset="0" style="stop-color:#DFC8E1"/>
		<stop  offset="0.1788" style="stop-color:#DBC6E1"/>
		<stop  offset="0.3815" style="stop-color:#CEC0DE"/>
		<stop  offset="0.5959" style="stop-color:#B9B6DB"/>
		<stop  offset="0.8169" style="stop-color:#9BA9D6"/>
		<stop  offset="1" style="stop-color:#7E9DD2"/>
	</radialGradient>
	<path class="st0" d="M348.4,176.7c0,54.5-25.4,103-64.9,134.5c-29.3,23.3-66.4,37.2-106.8,37.2c-94.9,0-171.7-76.9-171.7-171.7
		C4.9,81.8,81.8,4.9,176.7,4.9c40.4,0,77.5,13.9,106.8,37.2C323,73.6,348.4,122.2,348.4,176.7z"/>
	<g class="st1">
		<path class="st2" d="M155,283.1c0.1,0.1,0.3,0.2,0.4,0.2c0,0,0,0,0,0C155.3,283.2,155.2,283.1,155,283.1L155,283.1z"/>
		<path class="st2" d="M102.4,197c-0.4-0.1-0.8-0.3-1.1-0.4c-0.1,0.2-0.3,0.3-0.5,0.4C101.3,197,101.9,197,102.4,197z"/>
		<path class="st2" d="M269.2,187.6c0.1-0.3,0.3-0.7,0.4-1c-0.2,0.2-0.3,0.5-0.5,0.7c-0.4,0.6-0.7,1.2-1.1,1.7
			c0.4-0.1,0.9-0.2,1.3-0.4C269.1,188.4,269.1,188,269.2,187.6z"/>
		<path class="st2" d="M298.5,170.7c-3.2-1-6.6-0.9-10,0c-2.5-1.4-6.1-0.1-9.3,1.7c-1-0.1-2.1,0-3.2,0.3c9.1-7.6,5.1-24.4-1.7-34.3
			c3.7-1.8,7-7.3,6.5-10.9c-0.3-1.9-0.9-3.7-2.6-4.7c-0.2-0.1-2-1.4-2.3-0.5c0,0.1,0,0.1,0,0.2c-0.3,0-0.6,0.2-0.7,0.5
			c-0.9,1.4-1.1,3.1-1.8,4.7c-0.8,1.7-2.2,3-3.1,4.7c-0.3,0.5-0.1,1.1,0.3,1.3c-1.3,1-2.9,2.3-2.5,4c0.4,1.6,2.2,1.8,3.7,1.6
			c0.6,2.4,1.3,4.8,2,7.2c-0.4-0.4-0.8-0.8-1.2-1.1c0,0-0.1,0-0.1,0c-1.2,2.2-0.7,3.9-0.4,6.4c0.2,2.2,0.2,4.4,0,6.5
			c-0.1,0-0.2,0-0.3,0c-2.3,1-2.6,4.3-3.3,6.5c-0.9,3.1-2.2,6.1-3.4,9.2c-1.2,1.8-2.4,3.5-3.4,5.4c-0.3,0.5,0.3,1,0.7,0.7
			c0.1-0.1,0.3-0.1,0.4-0.2c0,0.2,0.1,0.4,0.2,0.5c-0.1,0.2-0.1,0.5-0.2,0.7c-3.1,2.5-5.9,5.4-6.4,8.5c0,0.2,0,0.3,0.1,0.4
			c0,0.3,0,0.6,0.1,0.9c0.1,0.3,0.3,0.5,0.6,0.6c0.5,0.1,1,0,1.4-0.1c0,0.1,0.1,0.2,0.2,0.3c0,0.1,0.1,0.1,0.1,0.2
			c-0.1,0-0.2,0.1-0.3,0.1c-2.1-0.6-4.8,1-6.6,2c-2.6,1.4-7.2,3.4-7.1,6.8c0,0.5,0.3,1,0.8,1.1c0.1,0,0.2,0,0.2,0
			c-0.4,0.9-0.6,1.9-0.6,2.9c0,1.2,1,2.2,2.2,2.2c2,0.1,3.7-0.7,5.2-1.9c-0.7,1.2-1.3,2.5-1.6,3.8c-0.3,1.2,0.9,2,2,1.5
			c2.9-1.3,5-3.7,7.2-5.8c0.9,1.3,1.8,2.7,2.4,4.3c1.6,4.3,1.9,9,1.6,13.6c-0.3,4.6-2.6,9.1-5.1,12.9c-2.5,3.8-6.8,5.7-10.3,8.4
			c-0.5,0.4,0,1.1,0.5,1.2c13.4,1.7,22.3-12.5,22.9-24.1c0.4-6.5-1.6-12.9-5.6-18c-0.3-0.3-1-1.1-2-2c2.1-1.6,4.3-3,6.5-4.2
			c3.6-1.9,7.5-3.4,11.4-4.4c4.2-1.1,8.6-0.4,12.8-1.4c0.1,0,0.1-0.1,0-0.1c-3.1-1.8-7.2-2.3-11.3-2c0,0-0.1-0.1-0.1-0.1
			c-3-2.1-7.5-1.7-11.9-0.7c4.7-8.3,16.1-18.6,26.3-17.2C298.5,170.8,298.6,170.7,298.5,170.7z M268,189c0.4-0.5,0.7-1.1,1.1-1.7
			c0.2-0.2,0.3-0.5,0.5-0.7c-0.1,0.3-0.3,0.7-0.4,1c-0.1,0.4-0.1,0.8,0.1,1C268.9,188.8,268.4,188.9,268,189z"/>
		<path class="st2" d="M135.6,291.9c0.9-0.7,0.5-2.1-0.3-2.6c-3-2.1-6.6-2.3-10.2-2.8c-3.4-0.5-6.7-1.3-9.8-2.7
			c0.7,0,1.5-0.1,2.2-0.3c1.3-0.4,2-1.9,1.3-3.1c-1.7-2.8-4.6-4.4-7.1-6.4c-3.5-2.9-5.8-6.8-7-11.1c-0.9-3.4-0.5-7.6,0.1-11
			c0.1-0.8,0.7-2.7,0.1-3.6c0.9-1.2,1.9-2.4,2.9-3.5c2.4-2.6,5-5,7.8-7.3c0.4-0.3,0.8-0.6,1.3-0.9c0.4,0.5,0.9,1,1.3,1.6
			c1.3,1.7,2.3,3.3,4.5,3.7c0.4,0.1,1,0,1.3-0.3c0.9-1.2,1.3-2.4,1.3-3.5c0.1,0,0.1,0,0.2-0.1c1.4,2.4,3.5,4.9,6.2,4.2
			c2.9-0.8,1.4-4.6,0.3-6.8c0.6-4.9-3.2-9.6-6-13.7c0.4-1.2,0.6-2.3,0.7-3.2c0.1-1.1-0.3-1.9-0.8-2.5c0.1-1.1-0.2-2.2-0.7-3.2
			c0.3,0.1,0.6,0.2,1,0.3c0.5,0.2,1-0.4,0.9-0.9c-0.6-2.1-1.8-3.9-3.4-5.5c0.5-0.2,0.8-0.9,0.5-1.4c-0.3-0.5-0.6-1-0.9-1.5
			c0.4-0.3,0.6-0.8,0.2-1.3c-0.1-0.2-0.3-0.4-0.5-0.7c0.6,0.1,1.2,0.1,1.7,0.1c1-0.1,1.3-1.1,0.8-1.8c-0.4-0.5-0.9-1-1.4-1.5
			c0.3-0.9,0.3-2.1-0.2-3.1c-1-1.9-1.2-3.2-1.5-5.4c0-0.3-0.1-0.6-0.1-1c0-0.1,0.1-0.2,0.1-0.3c0-0.9-0.3-1.7-0.7-2.4
			c-0.2-0.7-0.5-1.5-1-2.2c-0.4-0.7-1.4-1.1-2.3-0.9c-0.1-0.1-0.3-0.2-0.4-0.4c-2.5-2.1-5.1-4.2-7.4-6.6c-0.5-0.5-1.1-0.6-1.7-0.4
			c-0.8-0.9-1.6-1.7-2.4-2.6c-0.4-0.5-1-0.5-1.5-0.3c-0.5-0.6-1.5-1-2.2-0.5c-0.4,0.3-0.7,0.5-0.9,0.9c-0.2-0.3-0.4-0.5-0.5-0.8
			c-0.5-0.7-1.2-0.9-1.8-0.6c-1.2-2.7-2.1-5.4-3.4-8.1c-0.1-0.2-0.4-0.4-0.6-0.4c0-4.3,0.6-8.6,0.1-12.9c0-0.1-0.2-0.3-0.3-0.2
			c-1.5,1.1-2.7,2.5-3.6,4.1c0.1-0.7,0.2-1.3,0.3-2c0.5-3.2,1.5-6.3,2.8-9.2c0.3-0.7,0.7-1.5,1.1-2.1c2.2,0.9,4.7,0.9,7.1-0.7
			c2.9-1.9,1.6-6-1.7-6.3c-2-0.1-3.2,0.5-5-0.7c-1.3-0.9-2.3-2.6-2.8-4c-0.7-1.6-1.2-3.5-1.3-5.2c-0.1-1.2-0.3-3.5-1.9-3.5
			c-4.7,0.1-2.6,10.2-1.7,12.5c0.9,2.5,2.9,5.1,5.3,6.7c-2.2,3-3.6,6.9-4.8,9.9c-2.6,6.6-3.4,13.7-3.1,20.7c0.4,7.8,4,25,13.8,26.3
			c-1,0.1-1.9,0.4-2.7,0.9c-6.2-1.6-13.1-2.4-17.8,0c-4.7-0.2-9.3,0.4-13,2.5c-0.1,0-0.1,0.2,0,0.2c4,0.7,8.2,0.6,12.3,1.2
			c4.9,0.8,9.8,2.1,14.5,3.7c4.6,1.5,9,3.4,13.3,5.5c3.4,1.6,6.6,4,10.3,4.4c-1.3,0.9-2.5,1.9-3.7,2.8c-0.4,0.3-0.9,0.6-1.3,0.9
			c-2.6,0.6-5,3.1-6.8,4.8c-2.6,2.4-5.7,5-7.8,7.8c0,0,0,0.1,0,0.1c-1.3,1.3-2.5,2.7-3.5,4.1c-0.1,0.1,0.1,0.2,0.2,0.2
			c6-4.5,10.2-7.7,17.8-3.9c0.1,0,0.1,0.1,0.2,0.1c-4.2,2.3-8.4,6.1-10.3,8c-6.8,6.8-10.7,15.5-9.6,25.3c1.2,9.8,7.3,17.7,15.2,23.1
			C113.8,293.5,128,297.8,135.6,291.9z M101.3,196.6c0.4,0.2,0.7,0.3,1.1,0.4c-0.6-0.1-1.1-0.1-1.6-0.1
			C101,196.9,101.1,196.8,101.3,196.6z"/>
		<path class="st2" d="M104.4,86.6c7.2,0.2,14.4,1.5,21.3,3.5c-1,4.4-1.7,8.9-2,13.4c-0.1,1.3-0.1,2.7-0.1,4c-2.9,5.4-4.2,12-2.4,18
			c1.4,4.5,4.7,7.5,8.5,9.7c1.1,2.5,2.6,5.4,4.3,8.2c-3.5,0.2-7.1-0.1-10.6-0.7c-7.6-1.4-13.5-4.7-18.3-10.7c-0.1-0.1-0.2,0-0.2,0.1
			c-2.7,7.3,7.7,13.1,13.2,15.3c5.8,2.3,11.6,3.1,17.7,2.9c1.1,0,2.2-0.1,3.4-0.2c3.1,3.1,6.7,5.3,10.7,5.4c1.8,0.1,2.5-1.8,1.9-3.2
			c-0.1-0.3-0.3-0.6-0.4-0.8c4.6,3.2,9.9,5.4,15.4,6.3c0.5,0.1,0.9-0.5,0.5-0.8c-5.6-5.8-12-10.1-17.5-15.4c0,0,0-0.1,0-0.1
			c-0.4-0.7-0.7-1.4-1.1-2.1c1-0.2,1.9-0.6,2.7-1.1c1.3-0.8,1.6-2.7,0.5-3.8c-2.3-2.2-5.4-3-8.6-3.7c-1.9-3.1-3-6.8-5.6-9.3
			c-0.2-1-0.5-2-0.7-3c0.6,0.3,1.2-0.1,1.3-0.8c0.5-3.7-0.3-7.7-0.9-11.5c0.1,0.2,0.2,0.3,0.3,0.5c0.3,0.3,0.8,0.2,1-0.1
			c1.6-2.8,0.8-6.4,0.5-9.5c0-0.3,0-0.6,0-0.9c2.6,1.3,5.3,2.5,8.2,3.3c1.3,0.3,2.2-1,1.6-2.1c-1.9-3.9-5.3-6.7-9.2-8.7
			c0.1-1.1,0-2.1-0.1-3.2c0-0.1-0.1-0.1-0.2-0.1c-0.1,0.1-0.2,0.1-0.2,0.2c0.2-0.5,0.3-0.9,0.5-1.4c0.3,0.4,0.8,0.5,1.2,0
			c0.2-0.3,0.5-0.7,0.6-1.1c0.6,1,1.3,1.9,2.2,2.7c1.2,1.2,3.1,0.5,3.6-1c1.5-4.1,0.9-8.6-0.6-13.1c0.6-0.4,1.1-0.9,1.7-1.3
			c1.4-1.2,2.6-2.7,3.9-3.9c0.3-0.3,0.5-0.5,0.8-0.7c0.5-0.4,1.1-0.7,1.6-1c-0.1,0.7,0,1.5,0.1,2.3c0.2,0.9,1.6,1.3,2.2,0.6
			c1.2-1.3,1.9-3,2.4-4.9c0.1,0.1,0.1,0.2,0.2,0.3c0.2,0.2,0.5,0.2,0.7,0.1c0.6-0.4,1-0.9,1.2-1.6c2.4-0.7,4.8-0.9,7.1-1.9
			c0.1-0.1,0.2-0.1,0.3-0.2c4.7-1.1,9.4-1.9,14.5-2.1c16.5-0.3,33.2,7,41.3,21.7c0.4,0.8,1.1,1.3,1.7,1.5c-0.1,0.3-0.2,0.7-0.2,1
			c0,0.2,0,0.3,0,0.5c-3.3,4.7-6.5,10.5-8.2,16.4c-1.4,3.7-2.3,7.5-2.3,11.3c0,0.9,1.1,1.4,1.8,0.7c2.1-2.1,3.8-4.6,5.3-7.2
			c-0.7,3.9-0.8,7.9-0.1,11.7c0.1,0.7,1.3,0.9,1.6,0.2c0.5-1.2,1-2.5,1.4-3.8c0,0.1,0.1,0.2,0.1,0.2c0,0.8,0,1.7,0,2.5
			c0,1,1.2,1.5,1.9,0.8c3.4-3.1,5.1-7.1,6-11.4c2.9,2.8,4.4,5.6,4.4,9.8c0,1.8-0.5,3.3-1.3,4.8c-1-1.8-2.3-3.3-4.1-3.8c0,0,0,0,0,0
			c-1.3,2.6-0.1,5.8,0.3,8.6c0,0,0,0.1,0,0.1c-2.1,2.1-4.4,4.2-5.8,6.6c-0.7,1,0.2,2.1,1.3,2.2c1.6,0.2,3.1,0.1,4.5-0.3
			c-0.3,2-0.8,3.9-1.7,5.9c-0.6,1.5-1.4,2.8-2.3,4.1c-5.6,0.1-11.2-1.1-16.3-3.6c-0.2-0.1-0.6,0.1-0.5,0.4c1.7,4.6,6.5,7.2,11.6,8.6
			c-3.2,2.7-6.9,4.9-10.3,7.4c-0.7,0.5-0.7,1.7,0.2,1.9c7.4,1.8,14-2.4,18.7-8c0.7,0,1.3,0.1,1.9,0.1c8.4,0.1,26.3-5.3,26-16.1
			c0-1.5-1.3-2.3-2.7-2c-3.2,0.6-5.9,3.1-8.7,4.8c-3.7,2.4-7.4,4.1-11.7,5.3c1.7-3.9,2.7-8.4,2.3-12.7c3.7-3.8,6.1-9.4,6.3-14.2
			c0.2-4.7-2.5-9.4-5.6-12.6c-1.3-1.4-3.5-3-5.7-3.8c0-0.5,0-0.9,0-1.4c1.4-3.4,3.1-6.7,5.1-9.8c5.5-8.8,14.2-14.1,21.8-20.7
			c4.9-1.8,10-3,15.4-3.9c0.1,0,0.1-0.1,0-0.1c-8.1-1.3-16.7-0.2-24.5,2.8c-0.4,0-0.9,0-1.4,0.1c0,0,0.1-0.1,0.1-0.1
			c0,0,0-0.1,0-0.1c-0.5,0.2-1.1,0.3-1.6,0.5c0,0,0,0,0,0c0,0,0,0,0,0c0.1,0,0-0.1-0.1-0.1c-0.3,0.1-0.7,0.3-1,0.5
			c-5.3,1.9-9.8,4.6-13.9,8.1c-0.3-3-2.4-6.6-3.4-8.2c-4.5-7-12.9-11.9-20.3-15c-16.5-6.9-35.1-8-51.4-1.2c-0.5-1.1-1.1-2.1-1.8-3.1
			c0,0,0,0,0,0c-0.4-1-0.8-2-1.3-2.8c0,0-0.1,0-0.1,0c0.5,2.3,0.9,4.6,1.1,6.8c-2.3,1.1-4.6,2.3-6.8,3.7c-3.1,2-5.9,4.3-8.4,6.8
			c-2.2-4.4-4.6-8.4-8.9-11c-1.2-1.5-2.6-2.9-4.3-3.9c-0.1,0-0.1,0-0.1,0.1c0.4,0.4,0.9,0.8,1.2,1.3c-4.3-4.1-9.2-7.6-14.5-10.1
			c0,0-0.1,0,0,0.1c7.7,6.1,14.1,13.9,18.4,22.7c1.1,2.2,1.8,4.8,2.4,7.5c-4,5.4-7.1,11.5-9.2,17.9c-1-0.1-2.1-0.1-3.1-0.1
			c-6.7-0.7-13.4,0.3-19.9,2.4C104.2,86.4,104.2,86.5,104.4,86.6z"/>
		<path class="st2" d="M260.8,252.6c-1.5-1.7-3.3-3-5-3.5c-0.7-0.2-1.6,0.4-1.6,1.2c0.1,0.5,0.2,1,0.3,1.4c-0.1,0.3-0.1,0.6,0.1,1
			c0.1,0.2,0.2,0.3,0.3,0.5c1.2,3.4,3.4,6.5,2.6,10.3c-1.3,6.4-8.2,6.6-13.3,5c-0.1,0-0.3-0.1-0.4-0.1c0.3-0.8,0.6-1.6,0.8-2.5
			c1-4.6-5.4-6.2-6.9-1.9c-0.4,1.2-1,2.3-1.6,3.2c-1.4,0.1-2.9,0.4-4.7,0.9c-1.1,0.3-2,0.3-2.8,0.1c0.4-0.6,0.6-1.5,0.4-2.3
			c4-4.4,7.1-9.7,4.7-13.8c-0.4-0.6-1.1-1.1-1.9-1.1c-3.4,0.2-5.2,3.1-7.3,5.4c-0.1,0.1-0.2,0.2-0.3,0.3c-2.1-0.9-4-2-6.4-2.5
			c-1.2-0.2-2.4,0.6-2.7,1.7c-0.2,0-0.4,0-0.6,0c-1.3,0-2.1,1.1-2.2,2.2c0,0-0.1,0-0.1,0c-0.7-0.1-1.4-0.1-2.1-0.1
			c-1.1,0.1-1.6,1-1.3,1.8c-0.3,0.1-0.5,0.3-0.8,0.4c-1.5-0.3-2.9-0.3-4.3,0c-0.5,0.1-0.6,0.7-0.3,1c0.3,0.3,0.6,0.6,1,0.8
			c-1.2,0.6-2.5,1.1-3.8,1.5c-5.8,2-11.9,2.7-18,2.7c-3,0-6.3,0.2-9.5,0.2c-1.3-2.7-5.1-3.9-7-0.7c-1-0.2-2-0.5-2.9-0.9
			c-0.7-0.3-1.6-0.1-1.8,0.7c-0.2,0.8-0.3,1.5-0.2,2.1c-1.3-0.6-2.6-1.2-3.9-1.8c-3.2-1.5-6.8-2.7-9.3-5.3c-0.6-0.6-1.6,0-1.4,0.8
			c1.2,4.2,4.8,7.6,8.8,10.4c-0.4,0.5-0.8,0.9-1.2,1.6c-0.3,0.6-0.2,1.6,0.5,1.9c0.4,0.2,0.7,0.3,1,0.4l0,0
			c-0.8,0.3-1.6,0.5-2.4,0.6c-3.4-1.1-6.9-3.8-10.4-3.9c-0.4,0-0.7,0.4-0.6,0.7c0.4,1.5,1.6,2.9,3,4.1c-1.2,0.1-2.3,0.3-3.5,0.6
			c-0.6,0.2-0.8,0.9-0.3,1.3c2.3,2.3,6.4,3.5,10.3,3.9c-0.1,0.1-0.2,0.3-0.3,0.5c-0.4,1.2-0.6,2.4-0.5,3.6c-0.6,0.2-1.2,0.6-1.6,1.4
			c-0.3,0.6-0.5,1.2-0.5,1.9c-2.5,0.8-5.4,1-7.7,1.5c-0.2,0-0.3,0.3-0.4,0.5c-0.3,3,3.7,4.1,6,4.3c1.1,0.1,2.1,0,3.2-0.1
			c0.1,0.7,0.2,1.3,0.2,1.9c0,2.3-0.9,3.9-2.3,5.1c0.2-0.8,0.4-1.6,0.5-2.4c0.1-0.8-0.5-1.8-1.4-1.4c-2.5,0.9-4.5,2.5-6.3,4.2
			c-0.1-0.5-0.3-0.9-0.6-1.3c-0.6-1-2-1.7-3.2-1.3c-1.9,0.7-2.9,2.1-4,3.5c-0.5,0.1-0.9,0.3-1.4,0.5c-1.2,0.1-2.3,0.4-3.2,1.1
			c0,0,0,0-0.1,0.1c-0.4,0.2-0.9,0.3-1.3,0.4c-3.6,1-7.4,0.7-11,1.4c-0.4-0.3-0.7-0.6-0.9-0.9c0,0,0.1-0.1,0.1-0.1
			c1.4-1.6,0.1-4.2-2.1-3.6c-3.8,0.9-5.4,4.9-3.7,8.5c2.4,4.8,7.4,7.7,12.6,8.3c6,0.7,12.8-1.8,18.1-6c6.4,3.7,17.8-0.5,21.2-6.3
			c2.9-5,2.4-12.4-0.5-18.1c0.7-1.2,1.3-2.5,1.8-3.9c0.1,0,0.1,0,0.2,0.1c9.7,2.8,20.4,2,30.1-0.1c7.9-1.7,15.6-5,22.6-9.3
			c9.8,5.4,19.3,11.2,26.3,19.8c2,2.9,3.9,5.8,5.9,8.8c0,0,0.1,0,0.1,0c-1.9-8.6-8.3-16.8-14-23.2c-1.1-1.2-2.4-2.6-3.8-4
			c2.6-0.3,5.1-1.1,7.2-2.4c6.5,7.4,19.9,7.2,26.5-0.4C270,268.5,267.9,257.1,260.8,252.6z M155.5,283.3c-0.1-0.1-0.3-0.2-0.4-0.2h0
			C155.2,283.1,155.3,283.2,155.5,283.3C155.5,283.3,155.5,283.3,155.5,283.3z"/>
	</g>
	<path class="st3" d="M246.8,198.3c0.1-0.3,0.4-1.4,0.5-1.7c6.6-0.8,36.1-21.6,23.2-63.5c-1.9-6.3-13.9-9-16.6-3.9
		c-10.8,20.9-21.4,19.1-26.4,19c-6.6-7.1-28.7-12.6-44.2-12.7c-13.5-0.1-31.6,6.8-40.4,14c-26.8,1.6-34-10.9-33.7-17
		c0.1-0.9-7.2,0.9-10.5,0.9c-3.3,0-18.4,39.4,23.7,52.8c0.1,0,0.3,0,0.4,0c-0.8,4.8-1.3,10.3-1.4,16.7c-0.2,9.3,2.1,19.2,6.3,28.3
		c-12.1,0.6-24.1,12.9-26,25.9c-0.1,0.9,0,1.9,0.2,2.8c-0.4,0.4-0.6,1-0.6,1.7c0,7.2,11,28.1,28.1,31.5c9.1,1.8,24.5,3.3,27.2-18.5
		c0.1-0.9-0.1-1.9-0.5-2.7c4.4-1.8,7.6-4.1,8.2-6.8c4.7,1.5,9.8,2.2,15,2.2c13.7-0.2,27.7-4.9,39.4-12.5c5,4.5,13.9,6.3,18.7,6.3
		c7,0,28.3-28.1,28.4-38.2C265.9,213.3,264.5,200,246.8,198.3z"/>
	
		<radialGradient id="SVGID_2_" cx="182.2823" cy="219.5498" r="133.11" gradientTransform="matrix(1 4.285268e-03 -4.285268e-03 1 2.2842 -10.1241)" gradientUnits="userSpaceOnUse">
		<stop  offset="0" style="stop-color:#FCBC4A;stop-opacity:0"/>
		<stop  offset="1" style="stop-color:#EA9D22"/>
	</radialGradient>
	<path class="st4" d="M247.2,198.3c0.1-0.3,0.1-1.4,0.1-1.7c6.6-0.8,36.4-21.6,23.6-63.4c-1.9-6.3-13.9-9-16.6-3.9
		c-10.8,20.9-21.4,19.1-26.4,19c-6.6-7.1-28.7-12.6-44.2-12.7c-13.5-0.1-31.6,6.8-40.4,14c-26.8,1.6-35.5-12-33.7-17
		c0.3-0.9-7.2,0.9-10.5,0.9c-3.3,0-18.4,39.4,23.7,52.8c0.1,0,0.3,0,0.4,0c-0.8,4.8-1.3,10.3-1.4,16.7c-0.2,9.3,2.1,19.2,6.3,28.3
		c-12.1,0.6-24.1,12.9-26,25.9c-0.1,0.9,0,1.9,0.2,2.8c-0.4,0.4-0.6,1-0.6,1.7c0,7.2,11,28.1,28.1,31.5c9.1,1.8,24.5,3.3,27.2-18.5
		c0.1-0.9-0.1-1.9-0.5-2.7c4.4-1.8,7.6-4.1,8.2-6.8c4.7,1.5,9.8,2.2,15,2.2c13.7-0.2,27.7-4.9,39.4-12.5c5,4.5,13.9,6.3,18.7,6.3
		c7,0,28.3-28.1,28.4-38.2C266.2,213.3,264.8,200,247.2,198.3z"/>
	<path class="st5" d="M240.8,110.7c0-5.2-4-11-7.5-11c-1.7,0-3.7,0.9-5.2,2.3c0.9-4.1,1-8.7,0.1-13.8c-1.7-9.6-8.9-32.7-42.9-33.2
		c-34-0.5-46.2,25.9-46.9,35.6c-0.2,3-0.2,5.7,0,8.3c-2.2-1.1-4.1-1.9-5.1-1.9c-3.5,0-8.4,2.2-9.7,10.8c-0.7,4.8,5.8,18.4,16.6,17.9
		c0.1,0,0.1,0,0.2,0c4.8,20.3,32.7,33.3,53.1,33.3c20.7,0,43.4-11.5,40.3-35.6C237,121.2,240.8,115,240.8,110.7z"/>
	<path class="st5" d="M117.8,112.8c-1.9-2.1-3.6,3.1-6.6,6.1c-0.8-0.8-1.5-3.3-1.5-4.7c1-4.1,4-10.3,3.2-12.1
		c-0.9-1.9-4.6-3.9-6-3.9c-1.4,0-5.1,2.1-5.1,4.2c0,1.1,0.5,1.8,1.8,6.3c0.1,1,0.1,4.2-0.2,4c-0.7-6.1-6.2-11.1-8.3-11.1
		c-2.2,0-6.4,1.3-6.4,3.4c0,1.6,2.5,4.9,5.7,7.7c0.7,1.6,0.8,1.8,1.2,2.9c-0.3-1.4-5.7-4.3-8.4-4.3c-2.8,0-6.8,2.2-6.8,3.6
		c0,1.3-1.3,2.6,6.7,4.5c0.4,0.1,0.8,0.2,1.1,0.3c-0.7,0.1-1.2,0.2-1.5,0.2c-2.1,0-6.4,3-6.4,4.7c0,1.7,0.1,3.9,4,3.9
		c1.1,0,4.3-1.1,7.3-2.3c0,0.1,0,0.2,0,0.3c0,3.7,3.5,9.4,12.4,7.4c6.2-1.4,9-3.2,10.2-5.1l0,0c1.1,0,4.5-4.2,6.3-9.1
		C122,115.5,118.5,113.6,117.8,112.8z"/>
	<path class="st5" d="M279.2,118.4c3.6-0.5,7.5-1.6,7.3-3.5c-0.3-2.6-3.1-4.6-4.8-4.6c-1.4,0-8,1.5-10.2,3.5c0-0.1-0.1-0.2-0.1-0.3
		c2.7-2.9,6.7-8.2,6.7-9.6c0-1.9-2.7-3.2-3.8-3.2c-1.2,0-7.4-2.1-10.3,8.9c0,0-0.5,1.6-0.1,1.3c-0.2,0.1-0.3,0.2-0.5,0.4
		c0-0.2-0.1-3.4-0.1-3.6c0.8-3.9,5.2-8.6-3.3-11c-1.1-0.3-6.2,1.4-6.2,5.7c0,4,3.2,6.2,3.5,13.8c-0.5,0.5-1,1-1.5,1.5
		c-2.4-3.1-4.6-6.1-6.6-6.1c-2.7,0-3,4.4-2.5,6.2c1.3,4.9,6.4,11.8,9,11.8c0,0,0,0,0,0c1.4,1.6,3.9,2.8,8.3,3.4
		c7.6,0.9,11.1-4.6,11.5-8.4c2.2,1.2,5,2.2,8,2.6c1.7,0.2,3.4-1.5,3.4-3.8C286.8,121.5,281.4,118.7,279.2,118.4z"/>
	<path class="st5" d="M153.3,295.8c-1.7-6.6-6.7-2.5-15.3-2.6c-8.4-0.1-14.4,0.8-17.8,2.5c-0.1,0-2,1.8-1.9,1.9
		c-3.9,2.4-7.6,3.2-7.3,6.3c0.1,0.8,1.2,3.6,3.6,3.3c0,0,0,0,0,0c0,0.9,0.8,2,2.1,2c0,0,0.1,0,0.1,0c0.3,0.5,1.1,0.8,2,0.8
		c0.4,0,0.8-0.1,1.1-0.2c0.2,0.3,0.5,0.5,0.9,0.5c0.2,0,0.4-0.1,0.6-0.2c0.4,0.3,1.2,0.6,2.1,0.6c0.5,0,1-0.1,1.3-0.2
		c0.1,0,2.6,0.2,3.5-0.1c2-0.8,5.2-1.7,9.3-3.8c2.9-0.3,6.4-0.8,7.7-0.8C153,305.8,154.1,299,153.3,295.8z"/>
	<g>
		<path class="st3" d="M221.4,44.3c0,5.9-2.9,16.3-14.9,20.9c-0.2,0.1-0.3,0.1-0.3,0.1c0.7-0.6,12-11.3,2.6-23
			c-0.1-0.2-0.2-0.2-0.3-0.3c0-0.1,0-0.2-0.1-0.4c-2.3,4.2-3.9,3.4-8.6,3.8c-5.1,0.5-8.8-4.5-8.8-9.9s6.4-10.4,11.5-10.4
			c3.7,0,7.5,1.3,9.5,3C215,29.1,221.3,34.4,221.4,44.3z"/>
	</g>
	<path class="st5" d="M263.9,261.1c0-0.3-0.5-0.9-1.2-1.4c0.6-0.8,0.8-1.7,0.8-2.1c0-0.5-0.5-0.9-1.2-1.1c0.5-0.7,0.7-1.5,0.7-2
		c0-1-1.1-1.9-2.5-2.2c0.9-0.7,1.5-1.6,1.5-2.1c0-1.1-1-1.9-2.3-2.2c0.7-0.7,1.1-1.5,1.1-2.3c0-2.3-2.3-4.2-5.2-4.2
		c-2.4,0-4.8,1.9-5.5,3.8c-0.7-0.3-1.6-0.6-2.2-0.6c-1.3,0-8.8,5.6-11.2,7.6c-0.7,0-1.3,0-1.8,0c-4.1,0-9.9,2.8-10.1,10.8
		c-0.2,4.6,3.9,8.8,8,8.8c1.3,0,4.2-1.1,7.4-2.7c3.8,0.5,10.8,0.7,12.9,0.7c2.9,0,6.9-4,6.9-5.2c0-0.2-0.1-0.4-0.3-0.5
		C263.2,263.8,263.9,261.6,263.9,261.1z"/>
	
		<radialGradient id="SVGID_3_" cx="170.0163" cy="117.7771" r="15.8224" gradientTransform="matrix(0.9824 0.187 -0.14 0.7355 19.4868 -0.6417)" gradientUnits="userSpaceOnUse">
		<stop  offset="0" style="stop-color:#F7ACB3"/>
		<stop  offset="1" style="stop-color:#FDD8CC"/>
	</radialGradient>
	<path class="st6" d="M189.5,121c0.3,5.6-12.1,8.9-20.7,8.9s-16.6-7.1-16.6-12.7c0-5.6,6-12.1,14.7-12.1
		C175.5,105.1,189.1,114.1,189.5,121z"/>
	
		<radialGradient id="SVGID_4_" cx="220.4774" cy="117.5989" r="11.8738" gradientTransform="matrix(0.934 -0.3574 0.2676 0.6993 -16.9074 114.1595)" gradientUnits="userSpaceOnUse">
		<stop  offset="0" style="stop-color:#F7ACB3"/>
		<stop  offset="1" style="stop-color:#FDD8CC"/>
	</radialGradient>
	<path class="st7" d="M210.1,119.6c0.4,4.8,6,7.9,14.4,6c4.7-1.1,6.4-6.7,6.4-11.5c0-4.8-5.3-5.9-10.1-5.9S209.5,111.7,210.1,119.6z
		"/>
	
		<radialGradient id="SVGID_5_" cx="201.9928" cy="118.6674" r="7.2331" gradientTransform="matrix(0.9884 -0.1521 8.061781e-02 0.524 -7.2179 87.1982)" gradientUnits="userSpaceOnUse">
		<stop  offset="0" style="stop-color:#F7ACB3"/>
		<stop  offset="1" style="stop-color:#FDD8CC"/>
	</radialGradient>
	<path class="st8" d="M191.8,120.6c0,1.8,4.8,3.8,9.7,3.8s8.5-4.6,8.5-6.4s-0.8-2.9-5.8-2.9S191.8,118.8,191.8,120.6z"/>
	
		<radialGradient id="SVGID_6_" cx="106.9262" cy="98.6996" r="6.5973" gradientTransform="matrix(0.9884 -0.1521 0.205 1.3327 -18.993 -16.5776)" gradientUnits="userSpaceOnUse">
		<stop  offset="0" style="stop-color:#F7ACB3"/>
		<stop  offset="1" style="stop-color:#FDD8CC"/>
	</radialGradient>
	<ellipse class="st9" cx="107.5" cy="103.9" rx="5.5" ry="5.4"/>
	
		<radialGradient id="SVGID_7_" cx="91.9" cy="103.3458" r="6.5998" gradientTransform="matrix(0.9884 -0.1521 0.205 1.3327 -20.1203 -20.4081)" gradientUnits="userSpaceOnUse">
		<stop  offset="0" style="stop-color:#F7ACB3"/>
		<stop  offset="1" style="stop-color:#FDD8CC"/>
	</radialGradient>
	<path class="st10" d="M101.3,108c0,2.4-3.2,4.4-5.9,4.4s-7.1-4.6-7.1-7s3.5-3.2,6.2-3.2S101.3,105.6,101.3,108z"/>
	
		<radialGradient id="SVGID_8_" cx="82.8824" cy="114.6111" r="7.7609" gradientTransform="matrix(0.9884 -0.1521 0.205 1.3327 -22.5348 -25.5272)" gradientUnits="userSpaceOnUse">
		<stop  offset="0" style="stop-color:#F7ACB3"/>
		<stop  offset="1" style="stop-color:#FDD8CC"/>
	</radialGradient>
	<ellipse class="st11" cx="86.5" cy="115.7" rx="6.3" ry="3.4"/>
	
		<radialGradient id="SVGID_9_" cx="264.9153" cy="-271.7979" r="6.0985" gradientTransform="matrix(0.8919 -0.4692 0.6863 1.5974 32.7795 682.7685)" gradientUnits="userSpaceOnUse">
		<stop  offset="0" style="stop-color:#F7ACB3"/>
		<stop  offset="1" style="stop-color:#FDD8CC"/>
	</radialGradient>
	<path class="st12" d="M90.1,123.4c0.6,2.1-1,4.4-3.5,5.1c-2.5,0.8-5.1-0.3-5.7-2.4c-0.6-2.1,1-4.4,3.5-5.1
		C86.9,120.3,89.5,121.3,90.1,123.4z"/>
	
		<radialGradient id="SVGID_10_" cx="118.9066" cy="115.3912" r="6.6148" gradientTransform="matrix(-0.6141 0.7893 -1.0642 -0.828 314.7232 117.0864)" gradientUnits="userSpaceOnUse">
		<stop  offset="0" style="stop-color:#F7ACB3"/>
		<stop  offset="1" style="stop-color:#FDD8CC"/>
	</radialGradient>
	<path class="st13" d="M120.4,117.9c0,2.9-1.2,5.3-2.7,5.3s-4.8-1.6-4.8-4.5s2.7-6.2,4.2-6.2C118.7,112.5,120.4,115,120.4,117.9z"/>
	
		<radialGradient id="SVGID_11_" cx="4465.5" cy="97.1931" r="6.5973" gradientTransform="matrix(-0.9884 -0.1521 -0.205 1.3327 4693.582 646.6761)" gradientUnits="userSpaceOnUse">
		<stop  offset="0" style="stop-color:#F7ACB3"/>
		<stop  offset="1" style="stop-color:#FDD8CC"/>
	</radialGradient>
	<ellipse class="st14" cx="259.5" cy="102.4" rx="5.5" ry="5.4"/>
	
		<radialGradient id="SVGID_12_" cx="4450.5425" cy="101.8392" r="6.5998" gradientTransform="matrix(-0.9884 -0.1521 -0.205 1.3327 4694.7085 642.856)" gradientUnits="userSpaceOnUse">
		<stop  offset="0" style="stop-color:#F7ACB3"/>
		<stop  offset="1" style="stop-color:#FDD8CC"/>
	</radialGradient>
	<path class="st15" d="M265.7,106.5c0,2.4,3.2,4.4,5.9,4.4c2.7,0,7.1-4.6,7.1-7c0-2.4-3.5-3.2-6.2-3.2
		C269.8,100.7,265.7,104.1,265.7,106.5z"/>
	
		<radialGradient id="SVGID_13_" cx="4441.4565" cy="113.1045" r="7.7609" gradientTransform="matrix(-0.9884 -0.1521 -0.205 1.3327 4697.124 637.7266)" gradientUnits="userSpaceOnUse">
		<stop  offset="0" style="stop-color:#F7ACB3"/>
		<stop  offset="1" style="stop-color:#FDD8CC"/>
	</radialGradient>
	<ellipse class="st16" cx="280.5" cy="114.2" rx="6.3" ry="3.4"/>
	
		<radialGradient id="SVGID_14_" cx="4444.6143" cy="681.4335" r="6.0985" gradientTransform="matrix(-0.8919 -0.4692 -0.6863 1.5974 4716.6074 1119.9777)" gradientUnits="userSpaceOnUse">
		<stop  offset="0" style="stop-color:#F7ACB3"/>
		<stop  offset="1" style="stop-color:#FDD8CC"/>
	</radialGradient>
	<path class="st17" d="M277.2,122c-0.6,2.1,1,4.4,3.5,5.1c2.5,0.8,5.1-0.3,5.7-2.4s-1-4.4-3.5-5.1C280.3,118.9,277.8,120,277.2,122z
		"/>
	
		<radialGradient id="SVGID_15_" cx="4477.4805" cy="114.4325" r="6.6148" gradientTransform="matrix(0.6141 0.7893 1.0642 -0.828 -2623.1523 -3324.688)" gradientUnits="userSpaceOnUse">
		<stop  offset="0" style="stop-color:#F7ACB3"/>
		<stop  offset="1" style="stop-color:#FDD8CC"/>
	</radialGradient>
	<path class="st18" d="M246.6,117c0,2.9,1.2,5.3,2.7,5.3c1.5,0,4.8-1.6,4.8-4.5s-2.7-6.2-4.2-6.2C248.3,111.5,246.6,114,246.6,117z"
		/>
	
		<radialGradient id="SVGID_16_" cx="129.988" cy="96.2018" r="16.7209" gradientTransform="matrix(0.6293 0.7771 -1.0479 0.8486 148.9861 -86.4511)" gradientUnits="userSpaceOnUse">
		<stop  offset="0" style="stop-color:#F7ACB3"/>
		<stop  offset="1" style="stop-color:#FDD8CC"/>
	</radialGradient>
	<path class="st19" d="M145.2,106.6c0,5.6-5.3,17.5-10,17.5c-4.7,0-11.8-10.4-11.8-16s4.7-10.8,9.5-10.8
		C137.6,97.3,145.2,101,145.2,106.6z"/>
	
		<radialGradient id="SVGID_17_" cx="234.3049" cy="97.6983" r="12.7379" gradientTransform="matrix(-0.2663 0.9639 -1.2997 -0.3591 423.6774 -93.0648)" gradientUnits="userSpaceOnUse">
		<stop  offset="0" style="stop-color:#F7ACB3"/>
		<stop  offset="1" style="stop-color:#FDD8CC"/>
	</radialGradient>
	<path class="st20" d="M240.3,111c0,5.4-3.9,12.4-5.4,9.8c-8.6-14.5-8.4-13.5-7.7-15.7c1.2-3.8,3.1-5.3,6.2-5.3
		C236.3,99.8,240.3,105.6,240.3,111z"/>
	<g>
		<path class="st21" d="M228.4,148.2c-0.1,0-0.2-0.1-0.2-0.1c-0.2-0.1-0.4-0.1-0.6-0.2c-1.4-0.3-2.8,0.7-4,1.5
			c-1.1,0.7-2.1,1.7-3.1,2.6c-2.5,2.2-6.2,3.2-9.4,4c-9.9,2.6-21.9,3-31.9,1.5c-10.9-1.6-19.2-7.3-27.8-13.7
			c-0.1-0.1-0.1-0.2-0.2-0.3c-0.6,0.6-1.2,1.1-1.9,1.7c0,0.1,0.1,0.1,0.1,0.2c5.7,15.3,25.6,24.1,40.2,27.1
			c13.3,2.7,29.1,1.4,36.8-11.2C228.1,158.5,232.5,150.6,228.4,148.2z"/>
	</g>
	<g>
		<path class="st21" d="M140.1,152.7c0.5-0.7,1-1.3,1.6-1.9c0-0.1,0-0.2-0.1-0.2c0,0,0.1-0.1,0.1-0.1c0.4-0.5-0.4-1-0.8-0.6
			c0,0-0.1,0.1-0.1,0.1c0,0-0.1,0-0.1,0c-11.6-2-23.3,5.8-30,14.6c-2.2,2.9-6.8,10.8-4.6,14.6c2.8,4.7,10.1,6,15,7.1
			c1,0.2,1.7-0.4,1.9-1.4c0.9-7,4.3-13.9,7.6-20C133.1,160.3,136.9,156.7,140.1,152.7C140.1,152.7,140.1,152.7,140.1,152.7z"/>
	</g>
	<path class="st21" d="M107.5,132.9c-2.7,0.8-5.6,1.6-8.4,0.5c-0.2-0.1-0.3-0.1-0.5-0.1c-0.5,0.9-1,1.8-1.6,2.7
		c0.7,1.2,3,1.6,4.1,1.7c2.6,0.3,5.4-0.7,7.5-2.2C109.8,134.6,109.1,132.4,107.5,132.9z"/>
	<path class="st21" d="M271.6,137.5c-0.2-1.5-0.9-2.9-1.4-4.4c-0.3-0.9-1.4-0.7-2.4-0.4c-2.6,0.8-4.6,0.1-7.2-0.4
		c-1.5-0.3-3.8-0.9-4.8-2c-0.5-0.5-1.4-1.2-2.1-1.1c-0.2,1-0.4,2-0.7,3c0.7,2.9,5.6,6.2,7.5,7.5c3,2.1,8.7,4.7,11.3,0.8
		C272.5,139.6,272.4,137.9,271.6,137.5z"/>
	<g>
		<path class="st21" d="M164,266c-1.3,2.5-5,4.9-7.7,6.2c3.8,7.7-3.1,18.6-11.9,19.7c-0.8,0.1-0.9-0.3-0.6-1
			c2.7-6.8,0.7-11.4-2.8-17.1c-0.3-0.1-0.6-0.2-1-0.3c-1.9,0.6-4,0.7-5.9,0.2c0,0,0-0.1,0-0.1c5.4-1.4,11.2-3.3,10.7-10.2
			c-0.4-6.1-3.3-10.3-6.7-15.1c-0.1-0.1,0.1-0.3,0.2-0.2c1.8,1.9,4.4,4.3,6.6,7c4.3,2.8,8,6,13,7.7C159.1,263.3,164.7,264.7,164,266
			z"/>
	</g>
	<g>
		<path class="st21" d="M246.3,239.6c-1.1,4.2-4,7.8-7.3,10.4c-1.8,1.4-4,2-6.2,2.4c-3.7,0.7-4.8,2.2-6.7,5.1
			c-0.2,0.3-0.7,0.6-1.1,0.5c-1.8-0.7-3.4-1.3-4.8-2.6c-0.6-0.5-0.2-1.4,0.4-1.7c5.3-2.1,9.9-7.3,13.3-11.8c1.5-2,3-4.4,5-5.9
			c1.2-1.7,2.9-3.3,4.8-2.5C246.2,234.6,247,237,246.3,239.6z"/>
	</g>
	<g>
		<path class="st21" d="M243.4,199c-5.9,1-12.6,0.3-17.6,4c-0.5,0.4-1.1-0.4-0.7-0.9c1.7-1.9,18.3-16.3,21.3-10.5
			c0.1,0.1,0.3,0.3,0.3,0.5C247.8,195.6,247.3,198.4,243.4,199z"/>
	</g>
	<ellipse class="st21" cx="160.2" cy="221.1" rx="3.8" ry="3.7"/>
	<circle class="st21" cx="159" cy="195.6" r="3.6"/>
	<ellipse class="st21" cx="165.2" cy="171.1" rx="3.6" ry="3.6"/>
	<path class="st22" d="M218.4,134.8c0,2.3-2.8,5-4.3,5c-1.5,0-2.4-0.5-2.4-2.8c0-2.3,3.9-6.3,5.4-6.3
		C218.6,130.6,218.4,132.5,218.4,134.8z"/>
	<ellipse transform="matrix(0.9178 -0.397 0.397 0.9178 -13.1997 74.5963)" class="st23" cx="173.6" cy="69.2" rx="10" ry="4.5"/>
	
		<ellipse transform="matrix(0.9639 -0.2661 0.2661 0.9639 -11.1097 52.8981)" class="st23" cx="189.6" cy="67.4" rx="2.9" ry="1.7"/>
	<ellipse class="st24" cx="204.6" cy="118.2" rx="2.2" ry="1.1"/>
	<ellipse class="st23" cx="215" cy="142.3" rx="2.2" ry="1.3"/>
	<ellipse class="st23" cx="109.2" cy="102.7" rx="1.7" ry="2.6"/>
	<ellipse transform="matrix(0.9053 -0.4249 0.4249 0.9053 -35.9942 50.5412)" class="st23" cx="95.3" cy="106" rx="1.7" ry="2.6"/>
	<ellipse class="st23" cx="257.8" cy="102.9" rx="1.7" ry="2.6"/>
	<radialGradient id="SVGID_18_" cx="120.1656" cy="303.227" r="16.4591" gradientUnits="userSpaceOnUse">
		<stop  offset="0" style="stop-color:#F7ACB3"/>
		<stop  offset="1" style="stop-color:#FDD8CC"/>
	</radialGradient>
	<path class="st25" d="M153.3,296c-1.7-6.6-6.7-2.5-15.3-2.6c-8.4-0.1-14.4,0.8-17.8,2.5c-0.1,0-2,1.8-1.9,1.9
		c-3.9,2.4-7.6,3.2-7.3,6.3c0.1,0.8,1.2,3.6,3.6,3.3c0,0,0,0,0,0c0,0.9,0.8,2,2.1,2c0,0,0.1,0,0.1,0c0.3,0.5,1.1,0.8,2,0.8
		c0.4,0,0.8-0.1,1.1-0.2c0.2,0.3,0.5,0.5,0.9,0.5c0.2,0,0.4-0.1,0.6-0.2c0.4,0.3,1.2,0.6,2.1,0.6c0.5,0,1-0.1,1.3-0.2
		c0.1,0,2.6,0.2,3.5-0.1c2-0.8,5.2-1.7,9.3-3.8c2.9-0.3,6.4-0.8,7.7-0.8C153,305.9,154.1,299.2,153.3,296z"/>
	<radialGradient id="SVGID_19_" cx="257.1847" cy="247.2712" r="17.5395" gradientUnits="userSpaceOnUse">
		<stop  offset="0" style="stop-color:#F7ACB3"/>
		<stop  offset="1" style="stop-color:#FDD8CC"/>
	</radialGradient>
	<path class="st26" d="M263.6,261.1c0-0.3-0.5-0.9-1.2-1.4c0.6-0.8,0.8-1.7,0.8-2.1c0-0.5-0.5-0.9-1.2-1.1c0.5-0.7,0.7-1.5,0.7-2
		c0-1-1.1-1.9-2.5-2.2c0.9-0.7,1.5-1.6,1.5-2.1c0-1.1-1-1.9-2.3-2.2c0.7-0.7,1.1-1.5,1.1-2.3c0-2.3-2.3-4.2-5.2-4.2
		c-2.4,0-4.8,1.9-5.5,3.8c-0.7-0.3-1.6-0.6-2.2-0.6c-1.3,0-8.8,5.6-11.2,7.6c-0.7,0-1.3,0-1.8,0c-4.1,0-9.9,2.8-10.1,10.8
		c-0.2,4.6,3.9,8.8,8,8.8c1.3,0,4.2-1.1,7.4-2.7c3.8,0.5,10.8,0.7,12.9,0.7c2.9,0,6.9-4,6.9-5.2c0-0.2-0.1-0.4-0.3-0.5
		C262.9,263.8,263.6,261.6,263.6,261.1z"/>
	<path class="st24" d="M118.1,301.6c0,0.6-1.4,1.9-2.6,1.9c-1.2,0-2.3-0.4-2.3-1c0-0.6,1.5-2.1,2.7-2.1
		C117.1,300.5,118.1,301,118.1,301.6z"/>
	
		<ellipse transform="matrix(0.8662 -0.4997 0.4997 0.8662 -88.0082 159.5807)" class="st24" cx="254" cy="244.1" rx="2.2" ry="1.1"/>
	<g>
		<g>
			<path class="st27" d="M145.9,106.6c-3-11.1-20.5-14.9-22.9-1.4c-2.1,11.2,14.3,30.4,23.8,17.1c0.1-0.1-0.1-0.2-0.2-0.2
				c-5.5,3.5-11.3,3.4-16.1-1.3c-4.1-3.9-6.9-10-5.6-15.7c1.1-5.1,5.1-8,10.3-7C140,99,143.4,102.7,145.9,106.6
				C145.9,106.7,146,106.7,145.9,106.6L145.9,106.6z"/>
		</g>
	</g>
	<g>
		<g>
			<path class="st27" d="M139.9,125.6c2.2,14.4,17,24.8,29.6,30.1c11.6,4.9,25.2,5.3,37.4,2.5c10.8-2.4,20.7-8.4,25.3-18.8
				c4.6-10.5,4.3-25.8-6.1-32.9c-0.1-0.1-0.3,0.1-0.2,0.2c4.8,5.6,7.7,11.2,7.4,18.8c-0.2,5.7-2.1,11.8-5.1,16.6
				c-5.5,8.8-14.9,13.1-24.8,14.8c-11.5,2-23.8,1.3-34.5-3.4c-11.7-5.2-25.3-14.9-28-28.2C140.7,124.8,139.8,125.1,139.9,125.6
				L139.9,125.6z"/>
		</g>
	</g>
	<g>
		<path class="st27" d="M209.6,61c0.1-0.1,0-0.4,0.1-0.5c-6.7-3.5-14.4-5.4-21.9-6c-24.3-2.1-54.2,16.4-50,43.6
			c0.1,0.4,0.6,0.3,0.6-0.1c0.2-13.3,5.4-24.5,16.2-32.5c9.2-6.8,20.5-9.9,31.8-9.5c7.7,0.3,15.6,2.3,22.5,5.9
			C209.2,61.5,209.4,61.3,209.6,61z"/>
		<path class="st27" d="M221.3,69.7c-2.6-3.1-5.6-5.6-9-7.7c-0.4,0.3-0.9,0.6-1.3,1c2.4,1.4,4.6,3,6.6,4.9
			c10.3,9.6,12.4,26.2,8.6,39c0,0.1,0.2,0.2,0.2,0.1C232.9,96.2,229.1,79,221.3,69.7z"/>
	</g>
	<g>
		<g>
			<path class="st27" d="M191.4,39c0.5,6.9,9.9,8.8,14.9,5.6c5.1-3.3,4.6-12.2-2.7-10.8c-0.1,0-0.1,0.2,0,0.2
				c7,0.5,5.6,8.7,0.2,10.7c-4.7,1.7-11.3-0.2-12.4-5.6C191.5,38.9,191.4,38.9,191.4,39L191.4,39z"/>
		</g>
	</g>
	<g>
		<g>
			<path class="st27" d="M198.8,45.5c-7.7-2.4-9.6-11.2-3.4-16.6c6.1-5.3,16.1-2.3,20.9,3.3c9.8,11.5,1.7,29-11.3,33.5
				c-0.2,0.1-0.1,0.3,0.1,0.3c8.7-2.3,15.1-9,16.6-18.1c1.4-8.6-2.1-17.2-10.1-21.2c-7.2-3.6-17-2.6-20.4,5.6
				C188.5,38.6,192,44.9,198.8,45.5C198.8,45.6,198.8,45.5,198.8,45.5L198.8,45.5z"/>
		</g>
	</g>
	<g>
		<g>
			<path class="st27" d="M205.2,65.8c6.7-3.5,12.3-20.2,3.4-24.1c-0.7-0.3-1.2,0.6-0.6,1C215.4,47.2,211.5,61.9,205.2,65.8
				C205.1,65.8,205.1,65.9,205.2,65.8L205.2,65.8z"/>
		</g>
	</g>
	<g>
		<g>
			<path class="st27" d="M172.1,104.3c1.2,5.6,10.8,8,14.6,3.9c0.9-1-0.2-2.2-1.3-1.7C180.8,108.5,175.4,108.8,172.1,104.3
				C172.1,104.3,172.1,104.3,172.1,104.3L172.1,104.3z"/>
		</g>
	</g>
	<g>
		<g>
			<path class="st27" d="M206.7,107c2.2,5.5,11.8,6,15.1,1.4c0.7-0.9-0.6-2.1-1.5-1.5C216.1,109.8,210.7,110.8,206.7,107
				C206.7,106.9,206.6,106.9,206.7,107L206.7,107z"/>
		</g>
	</g>
	<g>
		<g>
			<path class="st27" d="M194,118.3c4.4-1.7,8.7-3.6,13.5-1.5c5.2,2.3-2.3,6.6-4.8,7.4c-0.1,0-0.1,0.3,0,0.3c3-0.1,10.5-3.4,7.4-7.5
				c-3.3-4.2-13.2-2.3-16.2,1.3C193.9,118.2,194,118.3,194,118.3L194,118.3z"/>
		</g>
	</g>
	<g>
		<g>
			<path class="st27" d="M191.8,122.6c0.5,0.8,1.2,1.2,2.1,1.5c0.7,0.2,1.9,0.6,2.5,0c0.1-0.1,0.1-0.2,0-0.2c-0.5-0.4-1.4-0.2-2-0.3
				C193.5,123.4,192.6,123,191.8,122.6C191.8,122.5,191.7,122.6,191.8,122.6L191.8,122.6z"/>
		</g>
	</g>
	<g>
		<g>
			<path class="st27" d="M220,133.9c0.3-1.9,0-3.9-2.4-3.8c-2.4,0.1-4.6,2.1-5.7,4.1c-0.9,1.7-1.4,4.9,0.6,6.2
				c1.8,1.2,4-0.5,5.1-1.8c1.8-2,2.8-5,1.2-7.4c-0.5-0.7-1.7,0-1.2,0.7c1.3,1.9,0.4,4.3-1,5.9c-1.1,1.3-3.5,2.7-4,0.2
				c-0.5-2.4,1.2-4.7,3.1-5.9C217.6,130.8,220,130.8,220,133.9C219.9,133.9,220,133.9,220,133.9L220,133.9z"/>
		</g>
	</g>
	<g>
		<g>
			<path class="st27" d="M206.6,142.4c2.2,2.3,5.6,3.9,8.8,3.6c2.6-0.2,5.5-2.2,4.9-5.1c0-0.1-0.2-0.1-0.2,0c-1.7,2.3-2.7,4.2-6,4.2
				C211.4,145,208.7,144,206.6,142.4C206.6,142.2,206.5,142.3,206.6,142.4L206.6,142.4z"/>
		</g>
	</g>
	<g>
		<g>
			<path class="st27" d="M227.9,102.8c2.5-1.7,5-3.3,7.9-1.4c2.4,1.6,3.4,4.5,3.7,7.2c0.7,5-0.9,10.3-5.3,13
				c-0.8,0.5-0.1,1.9,0.8,1.3c5.9-3.7,7.6-11.8,5.1-18.1c-2.1-5.2-9.2-8.3-12.3-2.1C227.7,102.7,227.8,102.8,227.9,102.8
				L227.9,102.8z"/>
		</g>
	</g>
	<g>
		<g>
			<path class="st27" d="M181,163.9c-15.6,27.2-15,62.2-4.6,91c0,0.1,0.1,0,0.1,0C168.2,224.6,167.9,192.8,181,163.9
				C181.1,163.8,181.1,163.8,181,163.9L181,163.9z"/>
		</g>
	</g>
	<g>
		<path class="st27" d="M261.4,232.1c-1.6,3.5-3.6,6.6-5.9,9.4c0.8-0.1,1.8,0,2.6,0.3c8.9-11.5,13.3-26.5,3.5-38.3
			c-10.8-13-33.7-4.8-44.1,4.3c0,0,0,0,0,0c10.7-7.3,29.7-13.4,40.9-4.1C266.4,210.6,265.2,223.6,261.4,232.1z"/>
	</g>
	<g>
		<g>
			<path class="st27" d="M144.5,255c14.6,12.5,34.3,16.5,52.6,10.6c17.2-5.5,35.6-16,43.9-32.7c0.1-0.1-0.1-0.2-0.2-0.1
				C219.5,262,176,278.9,144.5,255C144.5,255,144.5,255,144.5,255L144.5,255z"/>
		</g>
	</g>
	<g>
		<path class="st27" d="M225.8,258.3c-2.7-0.6-5.2-1.8-7.4-3.7c0,0,0,0,0,0c0.7,3,4,4.2,7.1,4.8C225.5,259,225.6,258.6,225.8,258.3z
			"/>
	</g>
	<g>
		<g>
			<path class="st27" d="M230,252.7c-8.1,3.7-8.2,18.8,1.9,19.9c2.2,0.2,3.9-0.8,5.8-1.7c4.8-2.3,8.7,0,13.5,0
				c3.8,0,10.1-2.4,9.3-7.1c0-0.3-0.4-0.3-0.5-0.1c-4.2,6.5-8.7,5.5-15.5,4.6c-3.2-0.4-5.2,0.2-8,1.5c-5.5,2.6-11.2-0.7-11-7.1
				C225.6,258.9,227.9,255.9,230,252.7C230.1,252.8,230,252.7,230,252.7L230,252.7z"/>
		</g>
	</g>
	<g>
		<g>
			<path class="st27" d="M250.7,245.4c1.5-3.1,7.7-5.3,9-0.8c0.6,2.2-0.9,3.8-2.7,4.8c-1.5,0.7-3.4,0.6-4.8,1.5
				c-0.2,0.1-0.1,0.3,0.1,0.4c1.9,0.7,5.3-0.8,6.9-2c1.9-1.4,2.4-3.7,1.4-5.8c-2.2-4.6-8.9-2.3-10.7,1.5
				C249.6,245.4,250.4,245.9,250.7,245.4L250.7,245.4z"/>
		</g>
	</g>
	<g>
		<g>
			<path class="st27" d="M255.6,253.9c2.3,0.9,4.9-0.4,6.1-2.4c0.5-0.8,0.8-1.7,0.4-2.6c-0.3-0.9-1.5-1.6-2.4-1.3
				c-0.4,0.1-0.5,0.7-0.1,0.9c0.6,0.4,1.4,0.3,1.6,1.1c0.1,0.7-0.4,1.5-0.8,2C259.2,253,257.5,254,255.6,253.9
				C255.5,253.8,255.5,253.9,255.6,253.9L255.6,253.9z"/>
		</g>
	</g>
	<g>
		<g>
			<path class="st27" d="M258.5,257.4c1,0.4,1.7,1,2.8,0.5c0.8-0.4,1.4-1.2,1.7-2.1c0.3-0.8,0.3-1.8-0.1-2.7
				c-0.3-0.7-1.4-1.7-2.2-1.3c-0.3,0.1-0.5,0.5-0.2,0.8c0.5,0.4,1.1,0.4,1.5,1c0.3,0.6,0.3,1.3,0.2,1.9c-0.4,1.5-2.2,2.8-3.7,1.8
				C258.5,257.3,258.4,257.4,258.5,257.4L258.5,257.4z"/>
		</g>
	</g>
	<g>
		<g>
			<path class="st27" d="M259.6,260.5c1.5,0.8,3.1,0.2,4-1.2c0.4-0.7,0.6-1.4,0.5-2.2c-0.1-0.7-0.7-1.7-1.5-1.5
				c-0.2,0.1-0.2,0.2-0.3,0.4c-0.1,0.5,0.4,0.8,0.5,1.3c0.2,0.5,0.2,1,0,1.5c-0.5,1.3-1.8,1.9-3.1,1.6
				C259.5,260.4,259.5,260.5,259.6,260.5L259.6,260.5z"/>
		</g>
	</g>
	<g>
		<g>
			<path class="st27" d="M259.4,264c0.2,0.5,1.4,0.3,1.8,0.2c0.8-0.1,1.6-0.5,2.3-1.1c1.1-1.1,1-3.1-0.6-3.7
				c-0.3-0.1-0.6,0.3-0.5,0.6c0.3,0.5,0.9,0.9,0.9,1.5c0,0.6-0.5,1.1-1,1.4c-0.5,0.3-1.1,0.6-1.6,0.8
				C260.3,263.7,259.6,263.6,259.4,264C259.4,263.9,259.4,263.9,259.4,264L259.4,264z"/>
		</g>
	</g>
	<g>
		<g>
			<path class="st27" d="M225.5,258.1c2-2.3,4-3.9,6.9-4.7c1.8-0.5,3.9-0.5,5.6-1.2c3.6-1.5,7.2-9,11.8-6.5c0.5,0.3,1-0.5,0.5-0.8
				c-4.5-2.5-7.9,3.1-11.3,5.1c-2.5,1.5-5.5,1.2-8.2,2.4C228.4,253.5,226.7,255.8,225.5,258.1C225.4,258.1,225.4,258.1,225.5,258.1
				L225.5,258.1z"/>
		</g>
	</g>
	<g>
		<g>
			<path class="st27" d="M251.1,254.5c-1.1,1.8-2.4,3.5-4.1,4.8c-1.9,1.4-3.7,1.1-5.8,1.5c-0.1,0-0.1,0.2,0,0.2
				c1.8,1,4.3,0.2,5.9-0.8c2-1.3,3.3-3.5,4.3-5.6C251.4,254.5,251.2,254.4,251.1,254.5L251.1,254.5z"/>
		</g>
	</g>
	<g>
		<g>
			<path class="st27" d="M115.4,299.3c-1.8-0.1-3.3,0.3-4.4,1.9c-0.8,1.2-1,2.7-0.6,4c1.1,3.3,5.8,3.7,7.7,0.8
				c0.1-0.1,0-0.2-0.1-0.2c-1.4,0.2-2.8,1.1-4.2,0.7c-1-0.2-1.8-1-2.1-1.9c-0.9-2.6,1.5-4.5,3.8-5
				C115.7,299.6,115.6,299.3,115.4,299.3L115.4,299.3z"/>
		</g>
	</g>
	<g>
		<g>
			<path class="st27" d="M114.5,307.8c0.6,1,1.4,1.7,2.6,1.6c1-0.1,2.3-0.7,2.7-1.7c0-0.1-0.1-0.2-0.2-0.2c-0.8,0.3-1.3,0.9-2.1,1.2
				c-1.2,0.4-2.1-0.1-2.7-1.1C114.6,307.5,114.4,307.6,114.5,307.8L114.5,307.8z"/>
		</g>
	</g>
	<g>
		<g>
			<path class="st27" d="M117.1,309.6c0.8,0.5,1.8,0.8,2.8,0.6c0.8-0.2,1.7-0.9,1.7-1.8c0-0.1-0.2-0.2-0.2-0.1
				c-0.6,0.5-0.9,1.2-1.7,1.4c-0.8,0.2-1.6-0.1-2.3-0.5C117.1,309,116.8,309.4,117.1,309.6L117.1,309.6z"/>
		</g>
	</g>
	<g>
		<g>
			<path class="st27" d="M122,305c2.4,1.3,4.5,0.8,6.8-0.6c0.1-0.1,0-0.2-0.1-0.2c-2.1,0.9-4.4,1.5-6.6,0.6
				C122,304.8,121.9,304.9,122,305L122,305z"/>
		</g>
	</g>
	<g>
		<g>
			<path class="st27" d="M120,309.8c0.2,0.2,0.2,0.5,0.5,0.6c0.2,0.1,0.5,0.2,0.8,0.1c0.6-0.1,1.4-0.8,1.2-1.4
				c0-0.1-0.1-0.2-0.2-0.1c-0.5,0.2-0.5,0.7-0.9,1c-0.2,0.1-0.4,0.1-0.5,0.1C120.6,310,120.2,309.8,120,309.8
				C120.1,309.6,120,309.7,120,309.8L120,309.8z"/>
		</g>
	</g>
	<g>
		<g>
			<path class="st27" d="M121.7,310.6c4.3,1.2,8.6-0.5,12.4-2.2c4.2-1.9,7.9-1.3,12.3-1.9c1.6-0.2,3.1-0.7,4.4-1.7
				c2.8-2,4.8-6.3,3.5-9.7c-1-2.5-4.2-4.7-6.9-3.7c-0.2,0.1-0.2,0.3,0,0.4c4.4,1.6,6.5,3.8,5,8.6c-1.9,6-7.5,4.5-12.3,5
				c-2.6,0.3-4.9,1.2-7.1,2.5C130,309.7,125.2,310.7,121.7,310.6C121.6,310.5,121.6,310.6,121.7,310.6L121.7,310.6z"/>
		</g>
	</g>
	<g>
		<g>
			<path class="st27" d="M113.6,299.7c2,0.1,3-0.5,4.7-1.6c4-2.8,6.1-4.1,11.2-4.2c3.1,0,6.1,0.3,9.2,0c4.2-0.4,7.5-2,11.9-0.8
				c0.2,0.1,0.4-0.2,0.2-0.4c-1.9-1.9-3.6-2.2-6.2-1.7c-2.6,0.5-4.7,1.6-7.4,1.8c-1.8,0.1-3.6,0-5.3,0c-3.3-0.1-7.1-0.2-10.1,1.3
				c-3,1.5-4.5,5.1-8.1,5.6C113.5,299.6,113.5,299.7,113.6,299.7L113.6,299.7z"/>
		</g>
	</g>
	<g>
		<g>
			<path class="st27" d="M151.6,143.5c-16.1,6.7-26,26.8-29.4,42.9c-4,19-0.7,40,12.1,55c0.1,0.2,0.4-0.1,0.3-0.2
				c-11.1-15.8-14.7-36.2-10.6-55c1.8-8.4,5.1-16.5,9.8-23.7c4.9-7.6,11.1-12.9,18-18.5C152,143.8,151.8,143.5,151.6,143.5
				L151.6,143.5z"/>
		</g>
	</g>
	<g>
		<g>
			<path class="st27" d="M127.9,230.8c-14.3,1-25.8,13.5-26.8,27.5c-0.6,7.8,2.2,14.7,6.9,20.8c4.9,6.5,11.8,13.6,20.4,13.9
				c0.2,0,0.2-0.2,0-0.3c-13.6-4.9-26.7-19.3-25.5-34.5c1.1-14,12.1-23.3,25.1-26.3C128.8,231.9,128.6,230.8,127.9,230.8
				L127.9,230.8z"/>
		</g>
	</g>
	<g>
		<g>
			<path class="st27" d="M132.3,274c10.3,0,26.6,3.2,32.6-8.1c0.4-0.8-0.7-1.5-1.3-0.7c-6.8,10.2-20.7,7.7-31.3,8.7
				C132.2,273.9,132.2,274,132.3,274L132.3,274z"/>
		</g>
	</g>
	<g>
		<g>
			<path class="st27" d="M156.6,272.1c-0.6,1.3-0.4,3-0.6,4.4c-0.3,2-0.9,4-1.7,6c-0.9,2.3-2.1,4.4-3.9,6.2
				c-1.3,1.3-2.8,1.8-4.2,2.9c-0.1,0.1,0,0.3,0.1,0.4c4,1.5,7.7-4.1,9.1-7c1.4-2.8,4.1-9.8,1.9-12.8
				C157.1,271.9,156.8,271.8,156.6,272.1L156.6,272.1z"/>
		</g>
	</g>
	<g>
		<g>
			<path class="st27" d="M98,127c0.5-0.7,0.5-1.2,0.7-1.9c0.3-1,1-1.9,1.8-2.5c1.5-1.2,3.3-1.3,5.2-1.5c0.1,0,0.2-0.2,0.1-0.3
				c-1.9-1.1-4.3-0.3-5.9,0.9c-1.4,1.1-3.3,3.5-2.1,5.2C97.9,127.1,98,127.1,98,127L98,127z"/>
		</g>
	</g>
	<g>
		<g>
			<path class="st27" d="M110,119.2c1.7-0.3,2.5-1.4,3.4-2.8c1.3-1.9,3.1-4,5.1-2c1.9,2,0.7,5.7-0.3,7.9c-2,4.5-6.3,8-10.9,9.7
				c-5.4,2-10,0.5-14.9-1.8c-0.1,0-0.2,0.1-0.2,0.2c2.7,4.7,9.5,5.1,14.1,3.7c5.7-1.8,11.2-6.3,13.5-11.9c1.2-2.9,2.3-8.5-1.8-9.9
				c-4.7-1.6-4.5,5.8-8.2,6.7C109.9,119.1,110,119.2,110,119.2L110,119.2z"/>
		</g>
	</g>
	<g>
		<g>
			<path class="st27" d="M111.2,118.7c-4.6-5.9,7.1-14.1,0.4-19.9c-2.5-2.2-6.4-2.3-8.8,0.1c-1.2,1.2-1.9,3-1.5,4.7
				c0.2,0.8,0.7,1.5,1,2.2c1.1,2.3,1.2,4.2,0.9,6.6c0,0.2,0.3,0.2,0.3,0c0.5-1.6,0.8-3.2,0.4-4.9c-0.7-3.3-3.1-7.2,1.7-8.7
				c2.6-0.8,6,0.5,6.8,3.2c0.5,1.8-0.1,3.8-0.6,5.5C110.9,110.2,107,117.1,111.2,118.7C111.2,118.8,111.2,118.8,111.2,118.7
				L111.2,118.7z"/>
		</g>
	</g>
	<g>
		<g>
			<path class="st27" d="M95.6,116c1.2-3-4.9-7.2-6-9.5c-0.7-1.5-0.3-2.5,1.2-3.4c2-1.2,4-1,5.9,0.1c3.1,1.7,5.7,5.5,6.3,9
				c0,0.1,0.1,0.1,0.1,0c0.1-6.3-8.1-15.2-14.2-9.3c-1.8,1.7-1,3.8,0.4,5.5C91.5,111.1,94.1,112.8,95.6,116
				C95.6,116.1,95.6,116.1,95.6,116L95.6,116z"/>
		</g>
	</g>
	<g>
		<g>
			<path class="st27" d="M95.2,115.4c-1.5-3.1-5.7-4.7-9-4.5c-2.6,0.1-6,1.8-6.3,4.8c-0.4,4.5,9.2,3.8,11.8,4.6
				c0.2,0,0.3-0.2,0.2-0.3c-0.9-0.8-2.2-0.9-3.3-1c-2-0.3-4.7-0.3-6.5-1.4c-1.2-0.7-1.6-1.5-0.9-2.8c1-1.7,2.8-2.3,4.7-2.4
				c3.2-0.1,6.7,1.1,9.1,3.2C95.1,115.7,95.2,115.5,95.2,115.4L95.2,115.4z"/>
		</g>
	</g>
	<g>
		<g>
			<path class="st27" d="M90.5,119.6c-4-0.7-11.4,0.1-10.8,5.8c0.7,6.5,8.3,2.5,11.9,1.4c0.6-0.2,0.5-1.1-0.1-1.1
				c-2.8,0.2-10,4.9-10.4-0.5C80.7,120.8,87.5,120.6,90.5,119.6C90.5,119.7,90.5,119.6,90.5,119.6L90.5,119.6z"/>
		</g>
	</g>
	<g>
		<g>
			<path class="st27" d="M90.9,126.3c0.4,3,2.6,8.1,6.4,7.3c0.2,0,0.2-0.3,0.1-0.4c-1-1-2.4-1.6-3.3-2.7c-1.1-1.3-1.8-2.7-2.1-4.3
				C91.8,125.6,90.9,125.7,90.9,126.3L90.9,126.3z"/>
		</g>
	</g>
	<g>
		<g>
			<path class="st27" d="M98,133.2c-6.7,8.5-7.8,22.6-3.7,32.4c4.6,11.1,17.1,20.3,28.9,21.8c0.5,0.1,0.7-0.8,0.3-1
				c-10.9-5.1-22.5-10.1-27.2-22.1c-3.5-9.1-2.9-22.1,2.9-30.2C99.7,133.4,98.5,132.5,98,133.2L98,133.2z"/>
		</g>
	</g>
	<g>
		<g>
			<path class="st27" d="M109,131.7c-1.9,7.5,6.8,13.8,12.8,16.3c4,1.7,8.8,2.4,13.1,2.6c3.4,0.1,7.9,0.6,10.5-1.9
				c0.1-0.1,0-0.2-0.1-0.2c-6.6,0.9-13.8,0.6-20.3-1c-6.6-1.7-16.6-7.7-15.6-15.7C109.6,131.4,109.1,131.4,109,131.7L109,131.7z"/>
		</g>
	</g>
	<g>
		<g>
			<path class="st27" d="M269,125.9c1.2-1.7-0.7-4.2-2.1-5.2c-1.6-1.2-4-2-5.9-0.9c-0.1,0.1-0.1,0.3,0.1,0.3
				c1.9,0.2,3.7,0.3,5.2,1.5c0.8,0.6,1.4,1.3,1.7,2.2c0.3,0.8,0.4,1.5,0.9,2.2C268.9,126,268.9,126,269,125.9L269,125.9z"/>
		</g>
	</g>
	<g>
		<g>
			<path class="st27" d="M256.9,118c-3.7-0.9-3.5-8.3-8.2-6.7c-4,1.4-3,7-1.8,9.9c2.3,5.6,7.8,10.1,13.5,11.9
				c4.7,1.5,11.5,1.1,14.1-3.7c0.1-0.1-0.1-0.2-0.2-0.2c-4.6,2.1-9.1,3.7-14.2,2c-4.8-1.6-9.4-5.2-11.6-9.9
				c-0.8-1.9-1.8-4.9-1.1-6.9c1.3-3.6,4.2-1.3,5.7,0.5c1.2,1.4,1.7,2.8,3.7,3.1C256.9,118.1,256.9,118,256.9,118L256.9,118z"/>
		</g>
	</g>
	<g>
		<g>
			<path class="st27" d="M255.8,117.7c4.1-1.7,0.2-8.6-0.6-11.1c-1.4-4.2-0.6-9.7,5.4-8.8c5.1,0.8,3.6,4.8,2.6,8.3
				c-0.5,1.9-0.3,3.6,0.3,5.5c0.1,0.2,0.3,0.2,0.3,0c-0.2-2.4-0.1-4.4,0.9-6.6c0.3-0.7,0.9-1.4,1-2.2c0.3-1.7-0.3-3.5-1.5-4.7
				c-2.4-2.4-6.3-2.3-8.8-0.1C248.6,103.5,260.3,111.7,255.8,117.7C255.7,117.7,255.7,117.7,255.8,117.7L255.8,117.7z"/>
		</g>
	</g>
	<g>
		<g>
			<path class="st27" d="M271.3,114.9c1.5-3.1,3.9-4.8,6.1-7.4c1.4-1.7,2.4-3.9,0.5-5.7c-6.1-6-14.3,3-14.2,9.3c0,0.1,0.1,0.1,0.1,0
				c0.6-3.5,3.2-7.2,6.3-9c1.8-1,3.8-1.3,5.6-0.3c1.6,0.9,2.2,1.9,1.5,3.5C276.2,107.8,270.1,111.9,271.3,114.9
				C271.2,115,271.3,115,271.3,114.9L271.3,114.9z"/>
		</g>
	</g>
	<g>
		<g>
			<path class="st27" d="M271.9,114.5c2.4-2,5.7-3.2,8.8-3.2c2,0,4,0.5,5,2.4c0.7,1.2,0.4,2.1-0.9,2.8c-1.8,1-4.3,1.1-6.3,1.3
				c-1.2,0.2-2.6,0.2-3.6,1c-0.1,0.1,0,0.3,0.2,0.3c2.7-0.8,12.3,0,11.8-4.6c-0.3-2.8-3.5-4.5-6-4.7c-3.4-0.3-7.8,1.3-9.3,4.5
				C271.6,114.5,271.8,114.6,271.9,114.5L271.9,114.5z"/>
		</g>
	</g>
	<g>
		<g>
			<path class="st27" d="M276.4,118.6c3,0.8,9.8,1.1,9.4,5.5c-0.4,5.4-7.5,0.7-10.4,0.5c-0.6,0-0.7,0.9-0.1,1.1
				c3.6,1.1,11.2,5.1,11.9-1.4C287.8,118.6,280.4,117.8,276.4,118.6C276.3,118.5,276.3,118.6,276.4,118.6L276.4,118.6z"/>
		</g>
	</g>
	<g>
		<g>
			<path class="st27" d="M274.9,125.1c-0.4,1.6-1,3.1-2.1,4.3c-1,1.1-2.3,1.7-3.3,2.7c-0.1,0.1-0.1,0.4,0.1,0.4
				c3.8,0.8,6-4.4,6.4-7.3C276,124.6,275,124.5,274.9,125.1L274.9,125.1z"/>
		</g>
	</g>
	<g>
		<g>
			<path class="st27" d="M225.2,148.6c10.9,4.5,28.5-8.4,28.9-19.8c0-1.1-1.7-1.1-1.7,0c-0.1,5.5-5.4,10.6-9.4,13.8
				c-5.2,4.2-11.1,5.8-17.7,5.4C224.9,148,224.9,148.5,225.2,148.6L225.2,148.6z"/>
		</g>
	</g>
	<g>
		<g>
			<path class="st27" d="M269.1,132.2c4.7,9.3,4.4,23.5,2,33.5c-1.6,6.7-4.8,13.6-9.2,18.9c-4.3,5.1-9.2,8.3-14.6,12.1
				c-0.4,0.3-0.1,0.7,0.3,0.6c13.4-5.7,21.3-18.5,24.9-32c1.7-6.2,1.7-12.7,1.2-19.1c-0.4-4.6-0.9-10.7-4.5-14.1
				C269.2,131.9,269.1,132,269.1,132.2L269.1,132.2z"/>
		</g>
	</g>
	<g>
		<g>
			<path class="st27" d="M243.7,180.9c0.9,2.9,1.6,6,2,9c0.4,2.8,0.1,5.6,0.6,8.3c0.1,0.8,1.6,0.9,1.7,0c0.9-5.8-1.3-12.5-4-17.5
				C243.9,180.6,243.7,180.7,243.7,180.9L243.7,180.9z"/>
		</g>
	</g>
	<ellipse class="st28" cx="165.1" cy="171.2" rx="3.9" ry="4.2"/>
	<ellipse class="st28" cx="159.1" cy="195.5" rx="3.9" ry="4.2"/>
	<ellipse class="st28" cx="160.2" cy="221.2" rx="3.9" ry="4.2"/>
	<g>
		<g>
			<path class="st27" d="M155.3,271.8c-0.1,0.6,0.4,1.4,0.6,2c0.2,0.7,0.2,1.3,0.6,2c0.1,0.1,0.2,0.1,0.2,0c0.4-0.7,0.2-1.4-0.1-2.2
				c-0.2-0.6-0.5-1.5-1-1.9C155.5,271.5,155.3,271.7,155.3,271.8L155.3,271.8z"/>
		</g>
	</g>
	<g>
		<g>
			<path class="st27" d="M119.7,233.9c1.3,0,2.6-0.4,3.9-0.7c1.6-0.4,3.2-0.5,4.9-0.5c0.6,0,0.6-1,0-1c-2.8,0.1-6.3,0.7-8.8,2.1
				C119.6,233.8,119.6,233.9,119.7,233.9L119.7,233.9z"/>
		</g>
	</g>
	<g>
		<g>
			<path class="st27" d="M218.5,254.9c0.5,0.3,0.7,0.8,1,1.2c0.2,0.3,0.6,0.6,0.9,0.9c0.5,0.5,1,1.1,1.7,0.9c0.1,0,0.2-0.1,0.1-0.2
				c-0.2-0.7-1-1-1.5-1.5c-0.3-0.2-0.5-0.5-0.8-0.6C219.4,255.3,218.9,255.1,218.5,254.9C218.5,254.7,218.4,254.8,218.5,254.9
				L218.5,254.9z"/>
		</g>
	</g>
	<g>
		<path class="st27" d="M225.9,258c-2.6-0.6-4.2-2.1-6.4-3.5c-0.1,0-0.2,0-0.1,0.1c0.5,2.6,3.8,4,6.1,4.6
			C225.6,258.8,225.7,258.4,225.9,258z"/>
	</g>
	<g>
		<g>
			<path class="st27" d="M269.6,131.9c0.5,2,0.9,4,1.7,5.9c0.1,0.2,0.3,0.2,0.3,0C271.6,135.8,271.4,133.1,269.6,131.9
				C269.6,131.9,269.6,131.9,269.6,131.9L269.6,131.9z"/>
		</g>
	</g>
	<g>
		<g>
			<path class="st27" d="M146.7,146.7c1.4-0.8,2.9-1.7,4.4-2.3c0.9-0.4,0.3-1.8-0.5-1.3C149.1,144.1,147.9,145.3,146.7,146.7
				C146.7,146.7,146.7,146.7,146.7,146.7L146.7,146.7z"/>
		</g>
	</g>
	<g>
		<g>
			<path class="st27" d="M141.6,150.8c1.8-1.3,3.4-2.8,5.2-4c1.3-0.9,3.5-1.8,4.1-3.4c0.1-0.2-0.1-0.5-0.3-0.4c-1.7,0.1-3.4,2-4.7,3
				C144.1,147.2,142.4,148.7,141.6,150.8C141.6,150.7,141.6,150.8,141.6,150.8L141.6,150.8z"/>
		</g>
	</g>
	<g>
		<g>
			<path class="st27" d="M149.6,143.4c-0.1,0.2-0.2,0.4-0.4,0.5c-0.1,0.1,0.1,0.3,0.2,0.2c0.2-0.2,0.3-0.4,0.4-0.6
				C149.7,143.3,149.6,143.3,149.6,143.4L149.6,143.4z"/>
		</g>
	</g>
	<g>
		<g>
			<path class="st27" d="M224.4,147.7c0.4,0.4,0.9,0.8,1.5,1c0.3,0.1,0.6,0.3,0.9,0.3c0.3,0,0.5-0.1,0.8-0.2c0.1-0.1,0.1-0.2,0-0.3
				c-0.1-0.1-0.3-0.3-0.5-0.4c-0.2-0.1-0.5-0.1-0.8-0.2c-0.5-0.2-1-0.4-1.3-0.8C224.6,146.7,224,147.3,224.4,147.7L224.4,147.7z"/>
		</g>
	</g>
	<g>
		<g>
			<path class="st27" d="M225,147.2c0.6,0.6,1.7,0.9,2.5,1.1c0.9,0.3,1.8,0.4,2.6-0.1c0.1-0.1,0.2-0.3,0-0.4
				c-0.9-0.4-1.7-0.4-2.7-0.6c-0.8-0.2-1.6-0.5-2.4-0.3C224.9,146.9,224.9,147.1,225,147.2L225,147.2z"/>
		</g>
	</g>
	<g>
		<g>
			<path class="st27" d="M225.8,146.9c2.1,2.6,7,2.6,9.6,0.9c0.1-0.1,0.1-0.4-0.1-0.4c-1.5-0.2-2.8,0.1-4.3,0.2
				c-1.9,0.1-3.2-0.5-5-1.1C225.8,146.3,225.7,146.7,225.8,146.9L225.8,146.9z"/>
		</g>
	</g>
	<g>
		<g>
			<path class="st27" d="M59.8,201.3c12.7-1,24.9-5.1,37.8-3.8c4,0.4,7.8,1.4,11.6,2.7c4.1,1.4,7.7,4,11.7,5.4
				c0.8,0.3,1.3-0.7,1-1.3c-1.8-3.2-7.7-4.8-11-5.9c-3.8-1.3-7.6-2.2-11.6-2.6c-5.3-0.5-10.7-0.2-16,0.5
				C75.6,197.3,67.2,198.5,59.8,201.3C59.8,201.3,59.8,201.3,59.8,201.3L59.8,201.3z"/>
		</g>
	</g>
	<g>
		<g>
			<path class="st27" d="M94.4,234c4-5.3,9.4-9.6,14.7-13.6c4.1-3.1,8-6.1,13.1-7.3c1.1-0.3,0.6-1.9-0.5-1.7c-5,1-9,4.5-12.9,7.7
				C103.2,223.5,98.7,228.4,94.4,234C94.2,234,94.3,234.1,94.4,234L94.4,234z"/>
		</g>
	</g>
	<g>
		<g>
			<path class="st27" d="M202.8,263.2c13.2,4.9,26.3,12.8,35.3,23.8c0,0.1,0.1,0,0.1-0.1c-8.5-12.2-20.8-21-35.2-24.8
				C202.4,261.9,202.2,262.9,202.8,263.2L202.8,263.2z"/>
		</g>
	</g>
	<g>
		<g>
			<path class="st27" d="M254.6,192.8c18.3-4.4,35.5-6.7,52.3,3.8c0.1,0.1,0.2-0.1,0.1-0.1c-13.8-12-36.9-13.4-52.6-4.2
				C254,192.4,254.2,192.9,254.6,192.8L254.6,192.8z"/>
		</g>
	</g>
	<g>
		<g>
			<path class="st27" d="M264.8,181.5c11.3-11,27.7-11.5,42.5-9.7c0.1,0,0.1-0.1,0-0.1c-14.6-3.6-32.6-3-42.6,9.7
				C264.5,181.4,264.7,181.6,264.8,181.5L264.8,181.5z"/>
		</g>
	</g>
	<g>
		<g>
			<path class="st27" d="M252.6,63c-10.3,1.7-24.4,11.1-25.6,22.3c0,0.1,0.1,0.1,0.2,0C233.2,75.5,240.9,66.2,252.6,63
				C252.7,63.1,252.7,63,252.6,63L252.6,63z"/>
		</g>
	</g>
	<g>
		<g>
			<path class="st27" d="M154.4,38.8c4.9,6.2,5.9,14,7.1,21.5c0.1,0.8,1.4,0.5,1.3-0.4C161.3,52.2,160,44.8,154.4,38.8
				C154.4,38.7,154.3,38.8,154.4,38.8L154.4,38.8z"/>
		</g>
	</g>
	<g>
		<g>
			<path class="st27" d="M123.3,40.4c5.9,4,11.2,9.2,15.2,15.2c1.6,2.4,3.2,4.9,4.6,7.4c1.6,2.7,2.2,5.9,3.7,8.5
				c0.1,0.2,0.3,0.1,0.4-0.1c1.3-5.6-4.9-13-8-17.2C135,48.5,129.6,43.9,123.3,40.4C123.3,40.4,123.3,40.4,123.3,40.4L123.3,40.4z"
				/>
		</g>
	</g>
	<g>
		<g>
			<path class="st27" d="M120.1,84.1c3.3-0.2,6.5,0.3,9.7,1.1c3.3,0.8,5.6,2.6,8.6,3.9c0.3,0.1,0.7-0.2,0.5-0.5
				c-1.3-2.6-5.6-3.8-8.3-4.4c-3.4-0.9-7-0.9-10.5-0.2C120,84,120,84.1,120.1,84.1L120.1,84.1z"/>
		</g>
	</g>
</g>
</svg>
